<?xml version="1.0" encoding="UTF-8" standalone="no"?>
<!-- Created with Inkscape (http://www.inkscape.org/) -->

<svg
   xmlns:dc="http://purl.org/dc/elements/1.1/"
   xmlns:cc="http://creativecommons.org/ns#"
   xmlns:rdf="http://www.w3.org/1999/02/22-rdf-syntax-ns#"
   xmlns:svg="http://www.w3.org/2000/svg"
   xmlns="http://www.w3.org/2000/svg"
   version="1.1"
   width="246.27342"
   height="241.40787"
   id="svg4458">
  <defs
     id="defs4460">
    <clipPath
       id="clipPath280">
      <path
         d="m 227.561,542.243 c 0,-42.693 34.61,-77.303 77.303,-77.303 l 0,0 c 42.691,0 77.3,34.61 77.3,77.303 l 0,0 c 0,42.693 -34.609,77.303 -77.3,77.303 l 0,0 c -42.693,0 -77.303,-34.61 -77.303,-77.303"
         id="path282" />
    </clipPath>
    <clipPath
       id="clipPath16">
      <path
         d="M 0,792 612,792 612,0 0,0 0,792 z"
         id="path18" />
    </clipPath>
  </defs>
  <metadata
     id="metadata4463">
    <rdf:RDF>
      <cc:Work
         rdf:about="">
        <dc:format>image/svg+xml</dc:format>
        <dc:type
           rdf:resource="http://purl.org/dc/dcmitype/StillImage" />
        <dc:title></dc:title>
      </cc:Work>
    </rdf:RDF>
  </metadata>
  <g
     transform="translate(-252.14959,-394.63973)"
     id="layer1">
    <g
       transform="matrix(1.25,0,0,-1.25,-5.453375,1195.5858)"
       id="g12">
      <g
         clip-path="url(#clipPath16)"
         id="g14">
        <g
           transform="translate(219.4458,541.9224)"
           id="g20">
          <path
             d="m 0,0 c 0.325,-0.571 0.74,-1.852 0.854,-3.521 0.297,-4.355 -2.25,-7.188 -6.443,-7.474 -4.519,-0.308 -7.462,2.661 -7.748,6.854 -0.112,1.649 0.154,2.832 0.385,3.36 l 2.03,-0.394 c -0.24,-0.67 -0.422,-1.603 -0.346,-2.722 0.191,-2.789 2.079,-4.685 5.376,-4.46 3.033,0.207 4.827,2.088 4.621,5.121 -0.069,0.997 -0.344,2.042 -0.675,2.694 L 0,0 z"
             id="path22"
             style="fill:#231f20;fill-opacity:1;fill-rule:nonzero;stroke:none" />
        </g>
        <g
           transform="translate(206.3052,546.9204)"
           id="g24">
          <path
             d="M 0,0 5.491,-0.403 5.918,5.394 0.426,5.797 0.61,8.299 14.319,7.291 14.135,4.789 8.095,5.233 7.668,-0.563 13.709,-1.008 13.525,-3.509 -0.184,-2.501 0,0 z"
             id="path26"
             style="fill:#231f20;fill-opacity:1;fill-rule:nonzero;stroke:none" />
        </g>
        <g
           transform="translate(216.6743,565.1934)"
           id="g28">
          <path
             d="m 0,0 -1.073,-5.069 3.951,-0.837 1.201,5.668 2.016,-0.427 -1.721,-8.123 -13.452,2.849 1.657,7.823 2.016,-0.426 -1.137,-5.369 3.473,-0.735 1.073,5.069 L 0,0 z"
             id="path30"
             style="fill:#231f20;fill-opacity:1;fill-rule:nonzero;stroke:none" />
        </g>
        <g
           transform="translate(221.8892,578.8721)"
           id="g32">
          <path
             d="M 0,0 C -1.688,0.554 -3.728,1.22 -5.456,1.898 L -5.478,1.841 c 1.405,-1.013 2.938,-2.207 4.341,-3.396 l 4.853,-4.004 -0.682,-1.793 -6.145,0.371 c -1.829,0.127 -3.758,0.336 -5.491,0.602 l -0.014,-0.038 c 1.657,-0.695 3.669,-1.547 5.387,-2.31 l 5.06,-2.25 -0.833,-2.193 -12.529,5.743 1.174,3.09 5.806,-0.286 c 1.681,-0.114 3.36,-0.294 4.913,-0.513 l 0.022,0.057 c -1.262,0.872 -2.679,1.913 -3.997,2.981 L -8.089,1.633 -6.929,4.685 6.209,0.543 5.339,-1.745 0,0 z"
             id="path34"
             style="fill:#231f20;fill-opacity:1;fill-rule:nonzero;stroke:none" />
        </g>
        <g
           transform="translate(218.2642,589.6592)"
           id="g36">
          <path
             d="M 0,0 12.146,-6.448 10.97,-8.665 -1.177,-2.216 0,0 z"
             id="path38"
             style="fill:#231f20;fill-opacity:1;fill-rule:nonzero;stroke:none" />
        </g>
        <g
           transform="translate(229.2104,586.7886)"
           id="g40">
          <path
             d="M 0,0 C 0.827,0.411 1.848,1.232 2.549,2.31 3.416,3.644 3.272,4.808 2.332,5.42 1.46,5.987 0.568,5.739 -0.907,4.63 -2.838,3.16 -4.637,2.601 -6.296,3.68 c -1.898,1.235 -2.295,3.732 -0.66,6.246 0.812,1.249 1.676,1.978 2.373,2.376 l 1.371,-1.597 C -3.713,10.422 -4.561,9.829 -5.262,8.751 -6.129,7.417 -5.795,6.397 -5.11,5.952 -4.221,5.374 -3.377,5.773 -1.777,6.924 0.277,8.436 1.909,8.737 3.568,7.658 5.433,6.446 6.129,3.998 4.204,1.038 3.403,-0.193 2.238,-1.237 1.434,-1.614 L 0,0 z"
             id="path42"
             style="fill:#231f20;fill-opacity:1;fill-rule:nonzero;stroke:none" />
        </g>
        <g
           transform="translate(229.7993,603.0879)"
           id="g44">
          <path
             d="M 0,0 -2.508,-3.009 -4.122,-1.664 2.526,6.313 4.141,4.968 1.606,1.928 10.555,-5.531 8.948,-7.458 0,0 z"
             id="path46"
             style="fill:#231f20;fill-opacity:1;fill-rule:nonzero;stroke:none" />
        </g>
        <g
           transform="translate(240.3062,608.4575)"
           id="g48">
          <path
             d="M 0,0 1.087,1.018 C 2.323,2.176 2.469,3.542 1.535,4.54 0.517,5.627 -0.731,5.437 -1.923,4.321 -2.503,3.777 -2.834,3.384 -2.971,3.172 L 0,0 z m -5.959,2.722 c 0.574,0.789 1.504,1.827 2.561,2.817 1.445,1.353 2.635,2.021 3.85,2.097 C 1.436,7.69 2.404,7.283 3.213,6.419 4.427,5.124 4.371,3.422 3.725,2.202 L 3.767,2.157 c 0.98,0.416 2.067,0.12 3.212,-0.625 1.5,-0.944 2.855,-1.855 3.412,-2.06 L 8.514,-2.286 C 8.086,-2.127 7.065,-1.545 5.626,-0.545 4.102,0.486 3.249,0.471 2.179,-0.476 L 1.255,-1.34 5.118,-5.465 3.302,-7.167 -5.959,2.722 z"
             id="path50"
             style="fill:#231f20;fill-opacity:1;fill-rule:nonzero;stroke:none" />
        </g>
        <g
           transform="translate(254.0112,610.332)"
           id="g52">
          <path
             d="m 0,0 -3.362,4.644 -8.221,3.946 2.33,1.687 3.392,-1.902 c 0.977,-0.551 1.713,-0.976 2.578,-1.509 l 0.032,0.024 c -0.25,0.902 -0.438,1.823 -0.645,2.908 l -0.73,3.828 2.297,1.663 L -1.365,6.165 2.032,1.471 0,0 z"
             id="path54"
             style="fill:#231f20;fill-opacity:1;fill-rule:nonzero;stroke:none" />
        </g>
        <g
           transform="translate(258.9702,615.3867)"
           id="g56">
          <path
             d="M 0,0 C -0.485,0.803 -0.293,1.707 0.492,2.182 1.278,2.657 2.14,2.415 2.636,1.594 3.101,0.827 2.936,-0.084 2.115,-0.58 1.365,-1.034 0.465,-0.768 0,0 m -3.559,5.883 c -0.485,0.803 -0.293,1.706 0.494,2.181 0.785,0.476 1.646,0.233 2.143,-0.587 0.464,-0.768 0.3,-1.678 -0.521,-2.174 -0.75,-0.454 -1.651,-0.188 -2.116,0.58"
             id="path58"
             style="fill:#231f20;fill-opacity:1;fill-rule:nonzero;stroke:none" />
        </g>
        <g
           transform="translate(270.9771,626.4517)"
           id="g60">
          <path
             d="m 0,0 -2.313,2.7 c -0.57,0.668 -1.142,1.445 -1.639,2.099 L -3.989,4.783 C -3.868,3.971 -3.702,3 -3.592,2.16 L -3.252,-1.373 0,0 z M -2.89,-3.28 -2.465,-7.331 -4.853,-8.338 -6.14,6.046 -3.188,7.292 6.276,-3.641 3.776,-4.696 1.114,-1.59 -2.89,-3.28 z"
             id="path62"
             style="fill:#231f20;fill-opacity:1;fill-rule:nonzero;stroke:none" />
        </g>
        <g
           transform="translate(292.7905,627.1177)"
           id="g64">
          <path
             d="m 0,0 c -0.793,-0.497 -2.38,-1.284 -4.157,-1.652 -2.278,-0.472 -4.135,-0.252 -5.666,0.702 -1.434,0.89 -2.481,2.527 -2.903,4.565 -0.865,4.278 1.589,7.619 6.043,8.541 1.658,0.344 3.027,0.273 3.707,0.101 l -0.129,-2.089 c -0.81,0.186 -1.758,0.24 -3.176,-0.053 -2.876,-0.596 -4.542,-2.711 -3.893,-5.847 0.633,-3.056 2.887,-4.485 5.683,-3.906 0.898,0.186 1.512,0.438 1.803,0.644 L -3.387,4.382 -5.763,3.89 -6.164,5.827 -1.41,6.812 0,0 z"
             id="path66"
             style="fill:#231f20;fill-opacity:1;fill-rule:nonzero;stroke:none" />
        </g>
        <g
           transform="translate(296.8394,634.291)"
           id="g68">
          <path
             d="M 0,0 1.486,0.095 C 3.176,0.202 4.157,1.164 4.07,2.528 3.976,4.014 2.892,4.66 1.264,4.556 0.47,4.506 -0.035,4.412 -0.275,4.335 L 0,0 z M -2.868,5.887 C -1.923,6.131 -0.547,6.342 0.898,6.434 2.873,6.56 4.217,6.318 5.202,5.604 5.996,5.021 6.484,4.092 6.56,2.911 6.672,1.141 5.548,-0.137 4.273,-0.668 L 4.277,-0.729 C 5.298,-1.032 5.949,-1.951 6.359,-3.253 6.916,-4.935 7.384,-6.499 7.683,-7.011 L 5.117,-7.175 C 4.888,-6.781 4.471,-5.683 3.995,-3.997 3.474,-2.231 2.807,-1.702 1.379,-1.751 L 0.117,-1.832 0.477,-7.47 -2.007,-7.628 -2.868,5.887 z"
             id="path70"
             style="fill:#231f20;fill-opacity:1;fill-rule:nonzero;stroke:none" />
        </g>
        <g
           transform="translate(312.9922,632.5342)"
           id="g72">
          <path
             d="M 0,0 -0.83,3.456 C -1.033,4.309 -1.188,5.261 -1.334,6.07 L -1.373,6.073 C -1.635,5.294 -1.93,4.355 -2.213,3.558 L -3.52,0.259 0,0 z M -4.064,-1.603 -5.529,-5.401 -8.114,-5.211 -2.713,8.175 0.48,7.94 3.928,-6.096 1.223,-5.897 0.268,-1.921 -4.064,-1.603 z"
             id="path74"
             style="fill:#231f20;fill-opacity:1;fill-rule:nonzero;stroke:none" />
        </g>
        <g
           transform="translate(318.1348,626.2134)"
           id="g76">
          <path
             d="M 0,0 3.055,13.411 5.861,12.772 8.014,6.233 C 8.549,4.542 8.992,2.808 9.277,1.215 L 9.316,1.206 C 9.545,3.038 9.9,4.778 10.367,6.827 l 1.065,4.676 2.269,-0.517 L 10.646,-2.424 8.1,-1.844 5.943,4.863 C 5.422,6.53 4.918,8.361 4.607,10.023 L 4.523,10.021 C 4.229,8.268 3.865,6.487 3.361,4.279 L 2.27,-0.517 0,0 z"
             id="path78"
             style="fill:#231f20;fill-opacity:1;fill-rule:nonzero;stroke:none" />
        </g>
        <g
           transform="translate(333.8809,623.9863)"
           id="g80">
          <path
             d="M 0,0 C 0.299,-0.186 0.791,-0.382 1.266,-0.572 4.289,-1.802 6.764,-0.834 8.059,2.407 9.197,5.204 8.219,7.485 5.299,8.65 4.561,8.945 4.025,9.093 3.654,9.153 L 0,0 z M 1.998,11.771 C 3.1,11.506 4.434,11.105 5.818,10.553 8.205,9.599 9.639,8.456 10.42,7.001 11.27,5.497 11.414,3.659 10.553,1.499 9.637,-0.794 8.186,-2.171 6.533,-2.786 4.803,-3.435 2.539,-3.212 0.057,-2.221 c -1.346,0.537 -2.338,1.022 -3.078,1.427 l 5.019,12.565 z"
             id="path82"
             style="fill:#231f20;fill-opacity:1;fill-rule:nonzero;stroke:none" />
        </g>
        <g
           transform="translate(356.2227,617.2085)"
           id="g84">
          <path
             d="m 0,0 -4.383,2.763 -2.154,-3.417 4.9,-3.09 -1.097,-1.742 -7.024,4.427 7.332,11.632 L 4.34,6.308 3.24,4.565 -1.402,7.492 -3.295,4.489 1.088,1.726 0,0 z"
             id="path86"
             style="fill:#231f20;fill-opacity:1;fill-rule:nonzero;stroke:none" />
        </g>
        <g
           transform="translate(354.7598,610.874)"
           id="g88">
          <path
             d="M 0,0 8.834,10.531 11.037,8.683 9.967,1.887 C 9.672,0.138 9.275,-1.605 8.803,-3.152 l 0.031,-0.026 c 1.039,1.524 2.148,2.91 3.498,4.519 l 3.08,3.672 1.781,-1.494 -8.834,-10.531 -2,1.678 1.143,6.947 C 7.801,3.333 8.188,5.19 8.668,6.811 L 8.592,6.848 C 7.529,5.422 6.395,4.006 4.939,2.271 L 1.781,-1.494 0,0 z"
             id="path90"
             style="fill:#231f20;fill-opacity:1;fill-rule:nonzero;stroke:none" />
        </g>
        <g
           transform="translate(375.0586,608.1079)"
           id="g92">
          <path
             d="M 0,0 -2.631,2.9 -1.076,4.312 5.898,-3.377 4.344,-4.789 1.686,-1.858 -6.941,-9.682 -8.627,-7.824 0,0 z"
             id="path94"
             style="fill:#231f20;fill-opacity:1;fill-rule:nonzero;stroke:none" />
        </g>
        <g
           transform="translate(380.7871,591.9277)"
           id="g96">
          <path
             d="M 0,0 -3.008,4.221 -6.299,1.876 -2.936,-2.843 -4.613,-4.039 -9.434,2.724 1.766,10.705 6.408,4.191 4.73,2.995 1.545,7.465 -1.348,5.405 1.66,1.184 0,0 z"
             id="path98"
             style="fill:#231f20;fill-opacity:1;fill-rule:nonzero;stroke:none" />
        </g>
        <g
           transform="translate(384.791,587.8892)"
           id="g100">
          <path
             d="M 0,0 0.707,-1.31 C 1.514,-2.799 2.797,-3.287 4,-2.637 5.311,-1.929 5.443,-0.674 4.666,0.762 4.287,1.461 3.992,1.881 3.82,2.067 L 0,0 z M 4.145,5.072 C 4.762,4.315 5.529,3.154 6.219,1.879 7.16,0.139 7.504,-1.183 7.268,-2.377 7.07,-3.342 6.432,-4.175 5.391,-4.737 3.83,-5.582 2.199,-5.096 1.182,-4.161 L 1.129,-4.19 c 0.152,-1.054 -0.41,-2.03 -1.42,-2.948 -1.295,-1.21 -2.52,-2.29 -2.859,-2.776 l -1.223,2.261 c 0.262,0.374 1.084,1.213 2.416,2.351 1.385,1.213 1.586,2.041 0.943,3.316 l -0.601,1.113 -4.971,-2.689 -1.184,2.19 11.915,6.444 z"
             id="path102"
             style="fill:#231f20;fill-opacity:1;fill-rule:nonzero;stroke:none" />
        </g>
        <g
           transform="translate(389.6992,577.0479)"
           id="g104">
          <path
             d="M 0,0 C 0.021,-0.341 0.141,-0.71 0.324,-1.187 0.996,-2.938 2.281,-3.668 3.768,-3.099 5.195,-2.55 5.559,-1.275 4.938,0.344 4.688,0.991 4.455,1.426 4.303,1.652 L 0,0 z M 5.068,4.611 C 5.551,3.813 6.109,2.695 6.709,1.133 7.367,-0.581 7.48,-1.958 7.109,-3.04 6.773,-4.042 5.953,-4.925 4.754,-5.385 3.535,-5.853 2.398,-5.852 1.443,-5.411 c -1.298,0.594 -2.31,1.866 -2.947,3.523 -0.168,0.438 -0.295,0.826 -0.344,1.179 L -6.703,-2.573 -7.596,-0.25 5.068,4.611 z"
             id="path106"
             style="fill:#231f20;fill-opacity:1;fill-rule:nonzero;stroke:none" />
        </g>
        <g
           transform="translate(393.6934,566.0391)"
           id="g108">
          <path
             d="m 0,0 0.35,-1.447 c 0.396,-1.645 1.513,-2.446 2.841,-2.124 1.448,0.349 1.897,1.528 1.514,3.113 C 4.518,0.316 4.338,0.797 4.221,1.021 L 0,0 z M 5.301,3.841 C 5.705,2.953 6.15,1.633 6.49,0.226 6.955,-1.697 6.949,-3.062 6.416,-4.155 5.979,-5.037 5.148,-5.679 3.998,-5.957 2.273,-6.374 0.822,-5.487 0.08,-4.324 L 0.02,-4.338 c -0.122,-1.058 -0.915,-1.857 -2.125,-2.486 -1.561,-0.839 -3.02,-1.569 -3.473,-1.951 l -0.604,2.497 c 0.348,0.294 1.356,0.895 2.936,1.654 1.648,0.818 2.055,1.566 1.758,2.964 l -0.297,1.228 -5.49,-1.327 -0.584,2.419 13.16,3.181 z"
             id="path110"
             style="fill:#231f20;fill-opacity:1;fill-rule:nonzero;stroke:none" />
        </g>
        <g
           transform="translate(402.1465,555.3594)"
           id="g112">
          <path
             d="M 0,0 -13.605,-1.954 -13.963,0.529 -0.355,2.483 0,0 z"
             id="path114"
             style="fill:#231f20;fill-opacity:1;fill-rule:nonzero;stroke:none" />
        </g>
        <g
           transform="translate(391.6152,551.249)"
           id="g116">
          <path
             d="m 0,0 c -0.426,-0.82 -0.766,-2.085 -0.695,-3.368 0.088,-1.589 0.89,-2.444 2.009,-2.383 1.04,0.057 1.614,0.783 2.151,2.549 0.689,2.326 1.812,3.838 3.787,3.946 2.262,0.124 4.055,-1.658 4.219,-4.653 0.082,-1.487 -0.186,-2.584 -0.514,-3.317 l -2.049,0.48 C 9.146,-6.222 9.48,-5.243 9.41,-3.96 9.322,-2.371 8.451,-1.745 7.637,-1.789 6.576,-1.847 6.131,-2.668 5.52,-4.541 4.754,-6.973 3.613,-8.179 1.637,-8.287 c -2.219,-0.122 -4.227,1.444 -4.418,4.968 -0.08,1.467 0.244,2.996 0.672,3.776 L 0,0 z"
             id="path118"
             style="fill:#231f20;fill-opacity:1;fill-rule:nonzero;stroke:none" />
        </g>
        <g
           transform="translate(394.9219,533.0161)"
           id="g120">
          <path
             d="M 0,0 0.314,5.17 -3.715,5.415 -4.066,-0.366 -6.123,-0.241 -5.619,8.043 8.1,7.21 7.615,-0.769 5.559,-0.644 5.893,4.832 2.35,5.047 2.037,-0.124 0,0 z"
             id="path122"
             style="fill:#231f20;fill-opacity:1;fill-rule:nonzero;stroke:none" />
        </g>
        <g
           transform="translate(221.7612,521.2393)"
           id="g124">
          <path
             d="m 0,0 0.268,-1.06 -6.036,-1.52 c -2.395,-0.604 -3.398,0.27 -3.751,1.666 -0.1,0.398 -0.125,0.891 -0.068,1.174 l 0.986,0.095 c -0.039,-0.24 -0.04,-0.573 0.051,-0.935 0.237,-0.939 0.842,-1.362 2.609,-0.917 L 0,0 z"
             id="path126"
             style="fill:#231f20;fill-opacity:1;fill-rule:nonzero;stroke:none" />
        </g>
        <g
           transform="translate(217.0786,515.7441)"
           id="g128">
          <path
             d="m 0,0 c -1.391,-0.455 -2.209,-1.506 -1.877,-2.521 0.324,-0.993 1.605,-1.398 3.035,-0.931 1.075,0.352 2.269,1.278 1.867,2.506 C 2.628,0.271 1.194,0.39 0,0 m 1.545,-4.502 c -2.35,-0.767 -3.856,0.375 -4.303,1.745 -0.502,1.535 0.363,3.151 2.371,3.807 C 1.727,1.741 3.386,0.884 3.899,-0.687 4.437,-2.328 3.474,-3.872 1.545,-4.502"
             id="path130"
             style="fill:#231f20;fill-opacity:1;fill-rule:nonzero;stroke:none" />
        </g>
        <g
           transform="translate(224.5796,510.2422)"
           id="g132">
          <path
             d="M 0,0 C -0.385,-0.152 -0.789,-0.031 -0.948,0.374 -1.095,0.743 -0.882,1.107 -0.497,1.259 -0.112,1.411 0.309,1.284 0.46,0.902 0.605,0.533 0.397,0.157 0,0 m -8.403,-2.009 6.211,2.452 0.401,-1.016 -6.211,-2.452 -0.401,1.016 z"
             id="path134"
             style="fill:#231f20;fill-opacity:1;fill-rule:nonzero;stroke:none" />
        </g>
        <g
           transform="translate(221.9429,506.9067)"
           id="g136">
          <path
             d="M 0,0 C 0.638,0.297 1.134,0.541 1.618,0.807 L 2.026,-0.072 1.052,-0.593 1.063,-0.615 C 1.751,-0.624 2.606,-0.993 3.025,-1.894 3.376,-2.648 3.42,-4.052 1.343,-5.017 l -3.604,-1.674 -0.46,0.99 3.491,1.622 c 0.976,0.454 1.637,1.158 1.203,2.093 -0.298,0.642 -1.047,0.91 -1.744,0.805 -0.159,-0.018 -0.357,-0.083 -0.544,-0.17 L -3.956,-3.043 -4.417,-2.052 0,0 z"
             id="path138"
             style="fill:#231f20;fill-opacity:1;fill-rule:nonzero;stroke:none" />
        </g>
        <g
           transform="translate(228.7778,500.7798)"
           id="g140">
          <path
             d="m 0,0 -1.404,-0.77 0.754,-1.373 -0.811,-0.444 -0.754,1.373 -3.158,-1.733 c -0.726,-0.398 -1.035,-0.809 -0.742,-1.343 0.143,-0.261 0.251,-0.4 0.378,-0.516 l -0.787,-0.488 c -0.175,0.146 -0.409,0.399 -0.613,0.77 -0.245,0.447 -0.272,0.899 -0.12,1.281 0.184,0.44 0.644,0.835 1.333,1.213 l 3.195,1.753 -0.449,0.817 0.811,0.444 0.449,-0.817 1.089,0.598 L 0,0 z"
             id="path142"
             style="fill:#231f20;fill-opacity:1;fill-rule:nonzero;stroke:none" />
        </g>
        <g
           transform="translate(228.8716,486.042)"
           id="g144">
          <path
             d="m 0,0 c -0.446,0.28 -1.248,0.904 -1.893,1.833 -0.721,1.041 -1.021,2.103 -0.775,3.271 0.225,1.033 0.99,2.107 2.181,2.933 C 1.791,9.616 4.442,9.352 6.042,7.045 6.595,6.249 6.841,5.482 6.888,5.076 L 5.927,4.743 C 5.864,5.244 5.682,5.798 5.2,6.492 4.039,8.166 2.125,8.457 0.209,7.129 -1.729,5.785 -2.152,3.95 -1.033,2.337 -0.63,1.755 -0.264,1.42 -0.008,1.294 L 2.271,2.874 1.308,4.262 2.102,4.813 3.673,2.546 0,0 z"
             id="path146"
             style="fill:#231f20;fill-opacity:1;fill-rule:nonzero;stroke:none" />
        </g>
        <g
           transform="translate(233.6929,486.709)"
           id="g148">
          <path
             d="m 0,0 c 0.612,0.494 1.131,0.928 1.591,1.347 l 0.601,-0.743 -1,-0.871 0.024,-0.029 c 0.87,0.351 1.732,0.185 2.193,-0.385 0.07,-0.088 0.114,-0.164 0.166,-0.25 L 2.684,-1.65 C 2.635,-1.545 2.564,-1.458 2.471,-1.343 1.986,-0.744 1.148,-0.718 0.346,-1.174 0.201,-1.258 0.032,-1.379 -0.118,-1.5 L -2.89,-3.736 -3.577,-2.886 0,0 z"
             id="path150"
             style="fill:#231f20;fill-opacity:1;fill-rule:nonzero;stroke:none" />
        </g>
        <g
           transform="translate(238.605,480.084)"
           id="g152">
          <path
             d="M 0,0 C 0.569,0.503 1.255,1.533 0.426,2.44 -0.328,3.266 -1.473,2.86 -2.152,2.357 L 0,0 z M -2.804,1.78 C -4,0.654 -3.871,-0.49 -3.125,-1.306 c 0.527,-0.578 0.967,-0.833 1.377,-0.996 l -0.508,-0.734 c -0.402,0.154 -1.028,0.492 -1.673,1.198 -1.248,1.366 -0.985,3.104 0.503,4.463 1.488,1.358 3.371,1.631 4.552,0.338 C 2.458,1.505 1.396,-0.156 0.488,-0.984 0.305,-1.152 0.164,-1.264 0.045,-1.338 L -2.804,1.78 z"
             id="path154"
             style="fill:#231f20;fill-opacity:1;fill-rule:nonzero;stroke:none" />
        </g>
        <g
           transform="translate(242.6567,475.2788)"
           id="g156">
          <path
             d="m 0,0 c -0.849,0.839 -1.994,1.598 -2.885,0.654 -0.55,-0.582 -0.453,-1.167 -0.055,-1.543 0.578,-0.546 1.328,-0.493 1.842,-0.201 0.122,0.074 0.226,0.166 0.302,0.247 L 0,0 z M -0.474,-2.04 C -0.872,-2.462 -1.242,-2.891 -1.51,-3.265 l -0.714,0.674 0.515,0.673 -0.026,0.025 c -0.605,-0.151 -1.397,-0.049 -2.02,0.539 -0.885,0.836 -0.683,1.956 -0.019,2.659 1.108,1.174 2.654,0.93 4.334,-0.676 L 0.654,0.73 c 0.37,0.392 0.962,1.218 0.059,2.053 -0.416,0.392 -0.964,0.662 -1.488,0.721 l 0.378,0.764 C 0.201,4.177 0.895,3.845 1.446,3.325 2.783,2.062 2.151,0.741 1.241,-0.223 L -0.474,-2.04 z"
             id="path158"
             style="fill:#231f20;fill-opacity:1;fill-rule:nonzero;stroke:none" />
        </g>
        <g
           transform="translate(249.2427,475.9888)"
           id="g160">
          <path
             d="m 0,0 -1.026,-1.229 1.199,-1.003 -0.593,-0.71 -1.2,1.004 -2.31,-2.764 c -0.531,-0.635 -0.67,-1.131 -0.203,-1.521 0.229,-0.191 0.379,-0.281 0.538,-0.343 l -0.554,-0.741 c -0.215,0.072 -0.526,0.223 -0.849,0.494 -0.391,0.327 -0.581,0.738 -0.577,1.148 0.011,0.477 0.296,1.013 0.8,1.616 l 2.337,2.796 -0.714,0.597 0.592,0.71 0.714,-0.597 L -1.049,0.41 0,0 z"
             id="path162"
             style="fill:#231f20;fill-opacity:1;fill-rule:nonzero;stroke:none" />
        </g>
        <g
           transform="translate(254.3042,473.3013)"
           id="g164">
          <path
             d="m 0,0 0.897,-0.623 -4.722,-6.814 2.94,-2.039 -0.574,-0.828 -3.838,2.662 L 0,0 z"
             id="path166"
             style="fill:#231f20;fill-opacity:1;fill-rule:nonzero;stroke:none" />
        </g>
        <g
           transform="translate(259.0601,463.2197)"
           id="g168">
          <path
             d="m 0,0 c -1.013,0.632 -2.299,1.12 -2.96,0.004 -0.408,-0.688 -0.185,-1.237 0.286,-1.516 0.685,-0.405 1.405,-0.19 1.843,0.208 0.102,0.1 0.184,0.212 0.24,0.307 L 0,0 z m -0.013,-2.093 c -0.295,-0.499 -0.562,-0.998 -0.741,-1.422 l -0.845,0.501 0.355,0.768 -0.032,0.019 c -0.557,-0.28 -1.352,-0.355 -2.09,0.082 -1.048,0.621 -1.098,1.757 -0.606,2.588 0.824,1.389 2.386,1.49 4.379,0.294 L 0.478,0.856 C 0.752,1.319 1.148,2.255 0.082,2.87 -0.41,3.161 -1.004,3.305 -1.529,3.247 l 0.201,0.827 C -0.725,4.117 0.025,3.946 0.679,3.56 2.262,2.622 1.936,1.195 1.261,0.056 l -1.274,-2.149 z"
             id="path170"
             style="fill:#231f20;fill-opacity:1;fill-rule:nonzero;stroke:none" />
        </g>
        <g
           transform="translate(263.186,461.2202)"
           id="g172">
          <path
             d="M 0,0 0.022,-0.011 C 0.261,0.132 0.567,0.303 0.828,0.436 L 3.445,1.708 4.613,1.126 1.321,-0.303 1.938,-5.005 0.736,-4.407 0.316,-0.62 -0.491,-0.989 -1.61,-3.238 -2.578,-2.756 1.787,6.019 2.755,5.537 0,0 z"
             id="path174"
             style="fill:#231f20;fill-opacity:1;fill-rule:nonzero;stroke:none" />
        </g>
        <g
           transform="translate(271.7651,457.771)"
           id="g176">
          <path
             d="M 0,0 C 0.299,0.698 0.477,1.921 -0.66,2.387 -1.694,2.81 -2.554,1.954 -2.952,1.208 L 0,0 z m -3.293,0.408 c -0.598,-1.53 0.008,-2.508 1.03,-2.926 0.725,-0.296 1.23,-0.339 1.671,-0.311 l -0.145,-0.879 c -0.429,-0.033 -1.139,0.003 -2.023,0.365 -1.713,0.7 -2.219,2.383 -1.456,4.248 0.762,1.865 2.345,2.916 3.965,2.254 C 1.575,2.411 1.326,0.456 0.862,-0.681 0.769,-0.911 0.688,-1.072 0.613,-1.19 l -3.906,1.598 z"
             id="path178"
             style="fill:#231f20;fill-opacity:1;fill-rule:nonzero;stroke:none" />
        </g>
        <g
           transform="translate(273.562,454.1665)"
           id="g180">
          <path
             d="m 0,0 c 0.249,-0.315 0.714,-0.731 1.232,-0.903 0.744,-0.246 1.232,0.044 1.41,0.581 C 2.823,0.229 2.624,0.614 1.973,1.179 1.073,1.942 0.794,2.718 1.045,3.479 1.383,4.501 2.415,5.09 3.63,4.688 4.208,4.496 4.659,4.158 4.892,3.833 L 4.367,3.076 C 4.195,3.308 3.855,3.667 3.325,3.843 2.712,4.046 2.251,3.763 2.096,3.291 1.922,2.767 2.174,2.421 2.809,1.847 3.653,1.117 3.99,0.395 3.679,-0.549 3.306,-1.677 2.256,-2.201 0.923,-1.76 0.298,-1.553 -0.22,-1.178 -0.534,-0.783 L 0,0 z"
             id="path182"
             style="fill:#231f20;fill-opacity:1;fill-rule:nonzero;stroke:none" />
        </g>
        <g
           transform="translate(277.3501,449.7129)"
           id="g184">
          <path
             d="M 0,0 6.929,10.311 7.901,10.053 0.944,-0.25 0,0 z"
             id="path186"
             style="fill:#231f20;fill-opacity:1;fill-rule:nonzero;stroke:none" />
        </g>
        <g
           transform="translate(290.2886,448.9961)"
           id="g188">
          <path
             d="m 0,0 c -0.419,-0.146 -1.253,-0.216 -2.254,-0.029 -2.319,0.432 -3.748,2.383 -3.185,5.394 0.536,2.876 2.641,4.477 5.193,4.002 C 0.767,9.178 1.381,8.811 1.631,8.596 L 1.183,7.683 C 0.832,7.973 0.289,8.242 -0.395,8.37 -2.323,8.729 -3.861,7.597 -4.31,5.196 -4.729,2.944 -3.836,1.304 -1.847,0.934 -1.188,0.811 -0.5,0.837 -0.029,0.988 L 0,0 z"
             id="path190"
             style="fill:#231f20;fill-opacity:1;fill-rule:nonzero;stroke:none" />
        </g>
        <g
           transform="translate(296.686,451.9985)"
           id="g192">
          <path
             d="M 0,0 C 0.091,0.754 -0.081,1.979 -1.305,2.106 -2.417,2.222 -3.003,1.158 -3.177,0.329 L 0,0 z m -3.279,-0.535 c -0.146,-1.636 0.711,-2.405 1.81,-2.52 0.78,-0.08 1.277,0.021 1.693,0.172 l 0.107,-0.886 c -0.403,-0.152 -1.096,-0.316 -2.047,-0.218 -1.842,0.191 -2.8,1.665 -2.59,3.67 0.209,2.005 1.436,3.46 3.178,3.279 C 0.838,2.759 1.146,0.811 1.019,-0.411 0.993,-0.658 0.962,-0.836 0.923,-0.971 l -4.202,0.436 z"
             id="path194"
             style="fill:#231f20;fill-opacity:1;fill-rule:nonzero;stroke:none" />
        </g>
        <g
           transform="translate(299.8267,452.6377)"
           id="g196">
          <path
             d="m 0,0 c 0.017,0.703 0.018,1.255 -0.006,1.808 l 0.969,-0.024 0.035,-1.105 0.025,0 C 1.336,1.292 2.047,1.896 3.04,1.871 3.873,1.851 5.151,1.267 5.096,-1.022 L 4.999,-4.995 3.905,-4.968 3.999,-1.12 C 4.025,-0.044 3.688,0.862 2.656,0.887 1.948,0.904 1.376,0.353 1.16,-0.318 1.106,-0.469 1.077,-0.675 1.072,-0.882 L 0.975,-4.896 -0.119,-4.87 0,0 z"
             id="path198"
             style="fill:#231f20;fill-opacity:1;fill-rule:nonzero;stroke:none" />
        </g>
        <g
           transform="translate(308.3359,456.0391)"
           id="g200">
          <path
             d="M 0,0 0.064,-1.6 1.627,-1.537 1.664,-2.461 0.1,-2.524 0.244,-6.125 c 0.033,-0.827 0.262,-1.288 0.869,-1.263 0.299,0.012 0.471,0.047 0.631,0.108 L 1.83,-8.202 C 1.623,-8.293 1.291,-8.39 0.869,-8.407 c -0.51,-0.02 -0.926,0.156 -1.199,0.463 -0.313,0.36 -0.461,0.948 -0.492,1.735 l -0.145,3.641 -0.93,-0.037 -0.037,0.924 0.93,0.037 -0.049,1.242 L 0,0 z"
             id="path202"
             style="fill:#231f20;fill-opacity:1;fill-rule:nonzero;stroke:none" />
        </g>
        <g
           transform="translate(311.6094,452.5337)"
           id="g204">
          <path
             d="M 0,0 C -0.068,0.784 -0.141,1.457 -0.234,2.072 L 0.719,2.156 0.887,0.841 0.924,0.844 C 1.115,1.762 1.734,2.385 2.465,2.45 2.576,2.459 2.664,2.454 2.764,2.449 L 2.865,1.308 C 2.752,1.325 2.641,1.315 2.492,1.302 1.725,1.234 1.236,0.553 1.168,-0.367 1.158,-0.535 1.164,-0.742 1.182,-0.934 L 1.496,-4.481 0.406,-4.578 0,0 z"
             id="path206"
             style="fill:#231f20;fill-opacity:1;fill-rule:nonzero;stroke:none" />
        </g>
        <g
           transform="translate(319.3281,452.2598)"
           id="g208">
          <path
             d="m 0,0 c -1.184,-0.15 -2.488,-0.583 -2.295,-1.866 0.119,-0.791 0.639,-1.075 1.178,-0.994 0.787,0.118 1.209,0.739 1.297,1.325 0.015,0.141 0.008,0.28 -0.008,0.389 L 0,0 z M 1.313,-1.63 C 1.398,-2.203 1.506,-2.759 1.635,-3.2 L 0.664,-3.346 0.453,-2.526 0.418,-2.532 C 0.164,-3.1 -0.406,-3.66 -1.254,-3.787 c -1.203,-0.181 -1.959,0.668 -2.101,1.622 -0.241,1.597 0.906,2.662 3.207,2.993 L -0.17,0.965 C -0.25,1.497 -0.533,2.472 -1.748,2.276 -2.313,2.191 -2.863,1.927 -3.234,1.55 L -3.6,2.318 c 0.44,0.415 1.129,0.756 1.879,0.869 C 0.098,3.46 0.746,2.148 0.941,0.839 L 1.313,-1.63 z"
             id="path210"
             style="fill:#231f20;fill-opacity:1;fill-rule:nonzero;stroke:none" />
        </g>
        <g
           transform="translate(321.2637,459.1045)"
           id="g212">
          <path
             d="M 0,0 1.07,0.22 3.043,-9.378 1.973,-9.599 0,0 z"
             id="path214"
             style="fill:#231f20;fill-opacity:1;fill-rule:nonzero;stroke:none" />
        </g>
        <g
           transform="translate(329.2168,456.0171)"
           id="g216">
          <path
             d="M 0,0 1.059,0.318 C 2.166,0.65 2.666,1.535 2.359,2.552 2.016,3.702 1.115,3.979 0.02,3.65 -0.48,3.5 -0.814,3.357 -0.977,3.251 L 0,0 z m -2.254,3.746 c 0.492,0.263 1.231,0.571 1.932,0.781 C 0.785,4.859 1.582,4.839 2.217,4.497 2.729,4.218 3.15,3.682 3.359,2.981 3.709,1.819 3.277,0.839 2.539,0.272 L 2.551,0.232 C 3.229,0.177 3.789,-0.347 4.256,-1.215 4.891,-2.378 5.34,-3.18 5.609,-3.474 L 4.539,-3.795 C 4.328,-3.57 3.924,-2.87 3.375,-1.825 2.77,-0.667 2.189,-0.337 1.238,-0.579 L 0.262,-0.872 1.42,-4.73 0.385,-5.041 -2.254,3.746 z"
             id="path218"
             style="fill:#231f20;fill-opacity:1;fill-rule:nonzero;stroke:none" />
        </g>
        <g
           transform="translate(339.0898,458.4287)"
           id="g220">
          <path
             d="m 0,0 c -0.264,0.712 -0.979,1.723 -2.123,1.276 -1.041,-0.407 -1.074,-1.62 -0.85,-2.437 L 0,0 z m -2.668,-1.976 c 0.621,-1.521 1.734,-1.813 2.764,-1.411 0.728,0.285 1.125,0.602 1.424,0.927 L 2.021,-3.198 C 1.734,-3.518 1.193,-3.981 0.303,-4.329 -1.42,-5.001 -2.945,-4.13 -3.68,-2.252 -4.412,-0.374 -3.99,1.481 -2.359,2.118 -0.52,2.836 0.646,1.246 1.094,0.101 1.184,-0.13 1.238,-0.302 1.266,-0.44 l -3.934,-1.536 z"
             id="path222"
             style="fill:#231f20;fill-opacity:1;fill-rule:nonzero;stroke:none" />
        </g>
        <g
           transform="translate(345.6152,461.4727)"
           id="g224">
          <path
             d="m 0,0 c -0.092,0.186 -0.182,0.342 -0.293,0.457 -0.492,0.558 -1.215,0.851 -1.941,0.498 -0.938,-0.457 -1.18,-1.663 -0.502,-3.053 0.574,-1.178 1.597,-1.892 2.648,-1.381 0.613,0.298 0.955,0.986 0.818,1.779 -0.035,0.213 -0.115,0.434 -0.205,0.621 L 0,0 z M 2.324,-2.276 C 3,-3.666 3.148,-4.622 2.895,-5.405 2.617,-6.199 1.949,-6.754 1.268,-7.086 0.619,-7.401 -0.18,-7.575 -0.771,-7.464 l -0.167,0.963 c 0.485,-0.087 1.153,-0.039 1.823,0.288 1.004,0.488 1.457,1.43 0.715,2.956 L 1.279,-2.6 1.258,-2.611 C 1.238,-3.31 0.863,-4.044 0.025,-4.452 c -1.339,-0.652 -2.916,0.146 -3.726,1.808 -0.99,2.035 -0.352,3.758 0.9,4.366 0.938,0.456 1.699,0.167 2.188,-0.209 l 0.021,0.01 -0.406,0.922 0.871,0.424 C 0.045,2.431 0.275,1.929 0.625,1.21 l 1.699,-3.486 z"
             id="path226"
             style="fill:#231f20;fill-opacity:1;fill-rule:nonzero;stroke:none" />
        </g>
        <g
           transform="translate(350.5,459.5005)"
           id="g228">
          <path
             d="M 0,0 -3.271,5.827 -2.318,6.363 0.953,0.536 0,0 z M -3.131,8.061 C -2.928,7.7 -2.992,7.283 -3.371,7.07 -3.719,6.875 -4.107,7.036 -4.311,7.397 -4.514,7.759 -4.443,8.193 -4.086,8.395 -3.74,8.589 -3.34,8.434 -3.131,8.061"
             id="path230"
             style="fill:#231f20;fill-opacity:1;fill-rule:nonzero;stroke:none" />
        </g>
        <g
           transform="translate(352.4297,464.457)"
           id="g232">
          <path
             d="M 0,0 C 0.789,-1.231 2.012,-1.757 2.91,-1.18 3.789,-0.616 3.859,0.725 3.047,1.991 2.438,2.943 1.242,3.863 0.154,3.165 -0.922,2.474 -0.678,1.057 0,0 M 3.967,2.629 C 5.299,0.551 4.572,-1.194 3.361,-1.973 2.002,-2.846 0.221,-2.416 -0.918,-0.639 -2.117,1.23 -1.707,3.052 -0.316,3.945 1.137,4.878 2.871,4.336 3.967,2.629"
             id="path234"
             style="fill:#231f20;fill-opacity:1;fill-rule:nonzero;stroke:none" />
        </g>
        <g
           transform="translate(357.3047,469.5493)"
           id="g236">
          <path
             d="M 0,0 C -0.43,0.559 -0.775,0.989 -1.141,1.405 L -0.373,1.994 0.35,1.155 0.369,1.17 C 0.227,1.845 0.4,2.761 1.189,3.365 1.85,3.871 3.211,4.218 4.607,2.399 L 7.027,-0.756 6.16,-1.42 3.814,1.636 C 3.16,2.491 2.326,2.984 1.51,2.357 0.947,1.927 0.848,1.137 1.102,0.48 1.156,0.329 1.262,0.149 1.389,-0.015 L 3.834,-3.203 2.967,-3.868 0,0 z"
             id="path238"
             style="fill:#231f20;fill-opacity:1;fill-rule:nonzero;stroke:none" />
        </g>
        <g
           transform="translate(366.5488,475.2588)"
           id="g240">
          <path
             d="m 0,0 c -0.906,-0.778 -1.754,-1.858 -0.887,-2.822 0.535,-0.595 1.125,-0.546 1.532,-0.18 0.591,0.532 0.601,1.284 0.351,1.82 -0.064,0.128 -0.148,0.239 -0.221,0.321 L 0,0 z M 1.994,-0.636 C 2.381,-1.067 2.777,-1.471 3.129,-1.768 L 2.4,-2.424 1.771,-1.857 1.744,-1.882 C 1.846,-2.497 1.68,-3.277 1.043,-3.851 c -0.904,-0.815 -2.004,-0.524 -2.65,0.194 -1.081,1.2 -0.711,2.721 1.025,4.266 l -0.092,0.102 c -0.361,0.4 -1.137,1.058 -2.041,0.224 -0.424,-0.383 -0.738,-0.907 -0.84,-1.425 l -0.73,0.438 c 0.139,0.589 0.527,1.254 1.09,1.761 1.367,1.231 2.631,0.495 3.517,-0.489 l 1.672,-1.856 z"
             id="path242"
             style="fill:#231f20;fill-opacity:1;fill-rule:nonzero;stroke:none" />
        </g>
        <g
           transform="translate(364.3809,482.0259)"
           id="g244">
          <path
             d="M 0,0 0.771,0.773 7.705,-6.149 6.934,-6.923 0,0 z"
             id="path246"
             style="fill:#231f20;fill-opacity:1;fill-rule:nonzero;stroke:none" />
        </g>
        <g
           transform="translate(377.3164,488.1265)"
           id="g248">
          <path
             d="m 0,0 c -1.051,0.763 -2.326,1.69 -3.221,2.407 l -0.015,-0.02 c 0.654,-0.906 1.361,-1.902 2.097,-3.034 l 2.6,-3.978 -0.514,-0.639 -4.312,1.706 c -1.281,0.519 -2.41,1.01 -3.42,1.517 L -6.801,-2.06 c 0.889,-0.745 2.057,-1.761 3.11,-2.7 l 2.972,-2.67 -0.644,-0.804 -6.895,6.276 0.862,1.076 4.406,-1.701 c 1.111,-0.446 2.078,-0.872 2.972,-1.302 l 0.016,0.019 c -0.594,0.762 -1.203,1.634 -1.887,2.658 L -4.469,2.771 -3.605,3.846 3.98,-1.568 3.313,-2.401 0,0 z"
             id="path250"
             style="fill:#231f20;fill-opacity:1;fill-rule:nonzero;stroke:none" />
        </g>
        <g
           transform="translate(381.7441,494.481)"
           id="g252">
          <path
             d="m 0,0 c -0.631,0.423 -1.801,0.826 -2.471,-0.206 -0.607,-0.938 0.075,-1.941 0.733,-2.472 L 0,0 z m -1.016,-3.162 c 1.393,-0.872 2.467,-0.459 3.069,0.469 0.426,0.656 0.562,1.146 0.617,1.584 L 3.508,-1.415 C 3.459,-1.843 3.291,-2.534 2.771,-3.336 1.764,-4.889 0.016,-5.073 -1.676,-3.977 -3.367,-2.881 -4.105,-1.129 -3.152,0.34 -2.078,1.998 -0.201,1.389 0.828,0.721 1.037,0.585 1.182,0.478 1.283,0.382 l -2.299,-3.544 z"
             id="path254"
             style="fill:#231f20;fill-opacity:1;fill-rule:nonzero;stroke:none" />
        </g>
        <g
           transform="translate(385.1816,500.4893)"
           id="g256">
          <path
             d="m 0,0 c -0.66,0.375 -1.857,0.688 -2.447,-0.393 -0.535,-0.982 0.22,-1.931 0.918,-2.411 L 0,0 z m -0.771,-3.231 c 1.453,-0.765 2.492,-0.27 3.021,0.701 0.375,0.687 0.475,1.186 0.496,1.627 L 3.604,-1.145 C 3.59,-1.575 3.475,-2.277 3.016,-3.117 2.129,-4.742 0.4,-5.059 -1.369,-4.095 -3.139,-3.13 -4.008,-1.438 -3.168,0.1 -2.223,1.834 -0.307,1.37 0.771,0.782 0.99,0.663 1.143,0.566 1.252,0.479 l -2.023,-3.71 z"
             id="path258"
             style="fill:#231f20;fill-opacity:1;fill-rule:nonzero;stroke:none" />
        </g>
        <g
           transform="translate(383.1621,506.1362)"
           id="g260">
          <path
             d="m 0,0 1.451,-0.676 0.66,1.419 0.84,-0.391 -0.662,-1.419 3.266,-1.521 c 0.75,-0.35 1.265,-0.357 1.523,0.195 0.125,0.27 0.174,0.44 0.192,0.609 L 8.129,-2.129 C 8.115,-2.355 8.049,-2.694 7.869,-3.077 7.654,-3.539 7.307,-3.829 6.908,-3.932 6.445,-4.044 5.854,-3.906 5.141,-3.574 L 1.838,-2.035 1.443,-2.88 0.605,-2.489 1,-1.645 -0.127,-1.12 0,0 z"
             id="path262"
             style="fill:#231f20;fill-opacity:1;fill-rule:nonzero;stroke:none" />
        </g>
        <g
           transform="translate(391.9727,505.5781)"
           id="g264">
          <path
             d="M 0,0 -6.166,2.57 -5.746,3.579 0.42,1.008 0,0 z M -7.432,4.416 C -7.049,4.256 -6.844,3.888 -7.01,3.487 -7.164,3.12 -7.568,3.007 -7.951,3.167 -8.334,3.326 -8.547,3.71 -8.389,4.088 c 0.153,0.367 0.563,0.492 0.957,0.328"
             id="path266"
             style="fill:#231f20;fill-opacity:1;fill-rule:nonzero;stroke:none" />
        </g>
        <g
           transform="translate(388.752,510.5293)"
           id="g268">
          <path
             d="m 0,0 c -0.664,0.231 -1.189,0.4 -1.725,0.546 l 0.319,0.916 1.062,-0.304 0.01,0.023 c -0.49,0.486 -0.848,1.347 -0.521,2.286 0.273,0.786 1.216,1.825 3.38,1.073 L 6.277,3.234 5.92,2.202 2.283,3.466 C 1.268,3.82 0.303,3.774 -0.035,2.8 -0.268,2.131 0.082,1.417 0.656,1.008 0.783,0.911 0.971,0.819 1.166,0.751 L 4.959,-0.567 4.6,-1.6 0,0 z"
             id="path270"
             style="fill:#231f20;fill-opacity:1;fill-rule:nonzero;stroke:none" />
        </g>
        <g
           transform="translate(392.959,521.4907)"
           id="g272">
          <path
             d="m 0,0 c -0.201,0.051 -0.377,0.083 -0.537,0.072 -0.744,-0.015 -1.434,-0.378 -1.633,-1.16 -0.258,-1.012 0.508,-1.976 2.004,-2.357 1.27,-0.323 2.477,-0.002 2.766,1.13 0.168,0.662 -0.137,1.367 -0.83,1.774 -0.186,0.112 -0.407,0.194 -0.608,0.245 L 0,0 z M 3.238,0.304 C 4.734,-0.077 5.561,-0.582 5.994,-1.282 6.42,-2.006 6.412,-2.876 6.227,-3.61 6.047,-4.309 5.664,-5.032 5.197,-5.413 l -0.842,0.496 c 0.379,0.314 0.774,0.855 0.958,1.577 0.275,1.084 -0.151,2.038 -1.793,2.457 l -0.709,0.18 -0.006,-0.024 c 0.521,-0.466 0.84,-1.227 0.609,-2.129 -0.367,-1.445 -1.994,-2.133 -3.785,-1.677 -2.193,0.557 -3.094,2.159 -2.75,3.507 0.256,1.011 0.969,1.407 1.572,1.536 l 0.006,0.024 -0.967,0.284 0.239,0.939 C -1.826,1.605 -1.293,1.458 -0.52,1.26 L 3.238,0.304 z"
             id="path274"
             style="fill:#231f20;fill-opacity:1;fill-rule:nonzero;stroke:none" />
        </g>
      </g>
    </g>
    <g
       transform="matrix(1.25,0,0,-1.25,-5.453375,1195.5858)"
       id="g276">
      <g
         clip-path="url(#clipPath280)"
         id="g278">
        <path
           d="m 438.787,445.178 -267.058,0 0,231.765 267.058,0 0,-231.765 z"
           id="path284"
           style="fill:#1476c6;fill-opacity:1;fill-rule:nonzero;stroke:none" />
        <g
           transform="translate(304.6885,577.1089)"
           id="g286">
          <path
             d="M 0,0 6.699,41.99 6.008,-0.525 19.896,39.663 11.832,-2.086 32.488,35.08 17.297,-4.635 44.093,28.38 22.236,-8.094 54.358,19.766 26.5,-12.357 62.974,9.5 29.959,-17.297 69.673,-2.105 32.508,-22.763 l 41.749,8.065 -40.189,-13.89 42.515,0.694 -41.989,-6.7 41.989,-6.701 -42.515,0.693 40.189,-13.89 -41.749,8.064 37.165,-20.656 -39.714,15.191 33.015,-26.797 -36.474,21.858 27.858,-32.124 -32.122,27.86 21.857,-36.473 -26.796,33.015 15.191,-39.715 -20.656,37.166 8.064,-41.75 L 6.008,-68.665 6.699,-111.18 0,-69.189 l -6.701,-41.991 0.693,42.515 -13.89,-40.188 8.066,41.75 -20.658,-37.166 15.193,39.715 -26.799,-33.015 21.858,36.473 -32.123,-27.86 27.861,32.124 -36.475,-21.858 33.014,26.797 -39.715,-15.191 37.166,20.656 -41.748,-8.064 40.188,13.89 -42.516,-0.693 41.99,6.701 -41.99,6.7 42.516,-0.694 -40.188,13.89 41.748,-8.065 -37.164,20.658 39.713,-15.192 L -62.975,9.5 -26.5,-12.357 -54.361,19.766 -22.238,-8.094 -44.096,28.38 -17.297,-4.635 -32.49,35.08 -11.832,-2.086 -19.898,39.663 -6.008,-0.525 -6.701,41.99 0,0 z"
             id="path288"
             style="fill:#6b9fdb;fill-opacity:1;fill-rule:nonzero;stroke:none" />
        </g>
        <g
           transform="translate(400.9551,504.2217)"
           id="g290">
          <path
             d="m 0,0 -3.092,0 0,1.595 -2.465,0 0,0.772 -1.498,0 0,1.74 -2.369,0 0,1.161 -1.4,0 0,-3.239 -1.498,0 0,2.707 -1.449,0 0,0.677 -2.03,0 0,-0.918 -1.402,0 0,0.724 -0.629,0 0,-4.784 -1.207,0 0,2.465 -1.547,0 0,3.721 -1.16,0 0,0.386 -2.223,0 0,-6.524 -0.967,0 0,12.952 -0.773,0 0,1.497 -0.531,0.822 -2.852,0 0,9.084 -0.773,0 0,1.788 -0.483,0 0,1.209 -1.062,0.822 -4.061,0 -0.82,-0.967 0,-1.498 -0.869,0 0,-1.739 -0.389,0 0,-2.32 -4.107,0 0,-0.58 -2.61,0 0,-4.204 -0.482,0 0,-5.944 -1.982,0 0,-7.925 -1.159,0 0,-0.533 -0.966,0 0,8.313 -14.16,0 0,-6.718 -1.256,0 0,6.379 -1.208,0 0,-0.821 -8.651,0 0,1.691 -2.465,0 0,-4.736 -1.642,0 0,1.933 -1.787,0 0,1.643 -4.157,0 0,-4.494 -1.015,0 0,1.982 -1.401,0 0,4.542 -4.349,0 0,-1.159 -1.836,0 0,-1.402 -1.016,0 0,0.386 -5.703,0 0,-0.531 -1.545,0 0,-3.963 -0.918,0 0,-3.625 -0.531,0 0,2.465 -0.533,0 0,1.015 -2.85,0 0,6.524 -3.625,0 0,-2.416 -0.678,0 0,0.676 -0.578,0 0,0.918 -2.176,0 0,18.025 c 0,0 0.34,-0.531 -1.015,1.208 -0.192,3.577 -10.485,2.9 -10.678,2.9 -0.193,0 -0.773,-0.676 -0.773,-0.676 l 0,-1.305 -0.774,-1.015 0,-22.278 -3.963,0 0,1.498 -2.271,0 0,-1.013 -3.238,0 0,1.593 -2.03,0 0,-3.189 -1.642,0 0,1.933 -1.354,0 0,3.528 -1.642,0 0,25.273 -15.706,6.187 0,-33.683 -1.595,0 0,-0.629 -0.774,0 0,-0.482 -1.16,0 0,-3.916 -1.062,0 0,-0.82 -0.58,0 0,0.917 -1.547,0 0,-1.159 -0.387,0 0,-0.629 -1.465,0 0,-0.385 -3.094,0 0,-2.836 -1.289,0 0,1.031 -5.412,0 0,-5.155 -1.029,0 0,3.866 -2.836,0 0,-1.289 -3.865,0 0,-2.319 -3.867,0 0,-58.01 188.774,0 L 0,0 z"
             id="path292"
             style="fill:#231f20;fill-opacity:1;fill-rule:nonzero;stroke:none" />
        </g>
      </g>
    </g>
    <g
       transform="matrix(1.25,0,0,-1.25,339.709,586.74434)"
       id="g302">
      <path
         d="M 0,0 2.674,0.925 2.941,-0.239 3.529,0 3.877,-1.015 5.08,6.357 5.641,-4.237 l 0.482,4.745 0.4,-0.657 0.856,1.104 1.043,-1.253 1.31,0.777 1.149,-0.718"
         id="path304"
         style="fill:none;stroke:#231f20;stroke-width:0.60000002;stroke-linecap:round;stroke-linejoin:round;stroke-miterlimit:10;stroke-opacity:1;stroke-dasharray:none" />
    </g>
    <g
       transform="matrix(1.25,0,0,-1.25,349.35675,571.31647)"
       id="g414">
      <path
         d="m 0,0 c -0.048,1.043 -0.108,2.303 -0.096,3.394 l -0.036,0 C -0.396,2.411 -0.731,1.319 -1.092,0.3 l -1.186,-3.502 -1.128,0 -1.079,3.454 c -0.313,1.031 -0.6,2.135 -0.816,3.142 l -0.024,0 C -5.361,2.338 -5.409,1.055 -5.469,-0.048 l -0.179,-3.25 -1.38,0 0.54,8.083 1.942,0 1.056,-3.25 c 0.288,-0.948 0.54,-1.907 0.744,-2.806 l 0.035,0 c 0.216,0.875 0.492,1.871 0.804,2.818 l 1.115,3.238 1.919,0 0.468,-8.083 -1.439,0 L 0,0 z"
         id="path416"
         style="fill:#ffffff;fill-opacity:1;fill-rule:nonzero;stroke:none" />
    </g>
    <g
       transform="matrix(1.25,0,0,-1.25,358.058,571.18159)"
       id="g418">
      <path
         d="m 0,0 -0.636,1.991 c -0.155,0.491 -0.287,1.043 -0.407,1.511 l -0.024,0 C -1.188,3.034 -1.319,2.471 -1.451,1.991 L -2.074,0 0,0 z m -2.314,-1.116 -0.696,-2.29 -1.523,0 2.591,8.083 1.882,0 2.626,-8.083 -1.594,0 -0.732,2.29 -2.554,0 z"
         id="path420"
         style="fill:#ffffff;fill-opacity:1;fill-rule:nonzero;stroke:none" />
    </g>
    <g
       transform="matrix(1.25,0,0,-1.25,363.65488,575.43934)"
       id="g422">
      <path
         d="m 0,0 0,3.37 -2.555,4.713 1.692,0 0.959,-2.074 c 0.276,-0.6 0.48,-1.056 0.708,-1.608 l 0.023,0 c 0.193,0.516 0.42,1.02 0.696,1.608 l 0.971,2.074 1.668,0 L 1.476,3.406 1.476,0 0,0 z"
         id="path424"
         style="fill:#ffffff;fill-opacity:1;fill-rule:nonzero;stroke:none" />
    </g>
    <g
       transform="matrix(1.25,0,0,-1.25,372.671,575.43934)"
       id="g426">
      <path
         d="m 0,0 0,0.899 0.924,0.852 c 1.835,1.703 2.698,2.639 2.71,3.67 0,0.696 -0.371,1.308 -1.391,1.308 C 1.547,6.729 0.972,6.38 0.576,6.081 L 0.144,7.124 C 0.708,7.58 1.56,7.928 2.543,7.928 4.27,7.928 5.11,6.836 5.11,5.565 5.11,4.198 4.126,3.094 2.759,1.835 l -0.672,-0.587 0,-0.025 3.191,0 L 5.278,0 0,0 z"
         id="path428"
         style="fill:#ffffff;fill-opacity:1;fill-rule:nonzero;stroke:none" />
    </g>
    <g
       transform="matrix(1.25,0,0,-1.25,387.41288,565.69447)"
       id="g430">
      <path
         d="m 0,0 0,-0.948 -3.299,-6.848 -1.547,0 3.285,6.548 0,0.024 -3.681,0 0,1.224 L 0,0 z"
         id="path432"
         style="fill:#ffffff;fill-opacity:1;fill-rule:nonzero;stroke:none" />
    </g>
    <path
       d="m 392.37913,572.08084 -3.82375,0 0,-1.275 3.82375,0 0,1.275 z"
       id="path434"
       style="fill:#ffffff;fill-opacity:1;fill-rule:nonzero;stroke:none" />
    <g
       transform="matrix(1.25,0,0,-1.25,393.85088,573.53572)"
       id="g436">
      <path
         d="m 0,0 c 0.299,-0.18 1.031,-0.479 1.775,-0.479 1.127,0 1.571,0.635 1.571,1.247 0,0.923 -0.875,1.319 -1.776,1.319 l -0.672,0 0,1.08 0.672,0 c 0.672,0 1.535,0.312 1.535,1.079 0,0.54 -0.382,0.983 -1.246,0.983 -0.636,0 -1.271,-0.275 -1.595,-0.491 l -0.336,1.067 c 0.443,0.3 1.318,0.6 2.242,0.6 1.619,0 2.435,-0.888 2.435,-1.907 0,-0.816 -0.48,-1.487 -1.439,-1.823 l 0,-0.024 c 0.947,-0.18 1.703,-0.888 1.715,-1.943 0,-1.319 -1.104,-2.363 -3.035,-2.363 -0.948,0 -1.762,0.264 -2.182,0.54 L 0,0 z"
         id="path438"
         style="fill:#ffffff;fill-opacity:1;fill-rule:nonzero;stroke:none" />
    </g>
    <g
       transform="matrix(1.25,0,0,-1.25,403.238,570.58221)"
       id="g440">
      <path
         d="m 0,0 c 0,-1.907 0.518,-2.89 1.32,-2.89 0.875,0 1.319,1.055 1.319,2.926 0,1.811 -0.42,2.879 -1.307,2.879 C 0.553,2.915 0,1.943 0,0 m 4.127,0.072 c 0,-2.519 -0.984,-4.09 -2.856,-4.09 -1.787,0 -2.746,1.631 -2.757,4.006 0,2.435 1.031,4.054 2.855,4.054 1.883,0 2.758,-1.679 2.758,-3.97"
         id="path442"
         style="fill:#ffffff;fill-opacity:1;fill-rule:nonzero;stroke:none" />
    </g>
    <g
       transform="matrix(1.25,0,0,-1.25,340.38825,600.93921)"
       id="g444">
      <path
         d="m 0,0 0,1.845 1.895,1.746 c 3.762,3.493 5.534,5.411 5.558,7.527 0,1.426 -0.763,2.681 -2.853,2.681 -1.427,0 -2.608,-0.713 -3.419,-1.328 l -0.886,2.14 c 1.156,0.934 2.902,1.648 4.92,1.648 3.542,0 5.264,-2.238 5.264,-4.846 0,-2.804 -2.017,-5.067 -4.822,-7.65 L 4.28,2.558 l 0,-0.049 6.543,0 L 10.823,0 0,0 z"
         id="path446"
         style="fill:#ffffff;fill-opacity:1;fill-rule:nonzero;stroke:none" />
    </g>
    <g
       transform="matrix(1.25,0,0,-1.25,363.4815,590.97709)"
       id="g448">
      <path
         d="m 0,0 c 0,-3.911 1.058,-5.928 2.705,-5.928 1.796,0 2.706,2.164 2.706,6.002 0,3.714 -0.861,5.903 -2.682,5.903 C 1.131,5.977 0,3.984 0,0 m 8.461,0.147 c 0,-5.165 -2.017,-8.387 -5.854,-8.387 -3.665,0 -5.632,3.345 -5.658,8.215 0,4.993 2.115,8.314 5.855,8.314 3.861,0 5.657,-3.444 5.657,-8.142"
         id="path450"
         style="fill:#ffffff;fill-opacity:1;fill-rule:nonzero;stroke:none" />
    </g>
    <g
       transform="matrix(1.25,0,0,-1.25,383.89963,584.36696)"
       id="g452">
      <path
         d="m 0,0 -0.049,0 -2.928,-1.476 -0.515,2.288 3.91,1.918 2.51,0 0,-15.988 -2.928,0 L 0,0 z"
         id="path454"
         style="fill:#ffffff;fill-opacity:1;fill-rule:nonzero;stroke:none" />
    </g>
    <g
       transform="matrix(1.25,0,0,-1.25,407.176,584.08984)"
       id="g456">
      <path
         d="m 0,0 -6.148,0 -0.469,-3.198 c 0.346,0.05 0.664,0.074 1.133,0.074 1.402,0 2.828,-0.32 3.886,-1.033 1.205,-0.763 2.09,-2.115 2.09,-4.059 0,-3.05 -2.533,-5.534 -6.445,-5.534 -1.869,0 -3.418,0.467 -4.254,0.935 l 0.615,2.287 c 0.688,-0.369 2.065,-0.836 3.516,-0.836 1.771,0 3.469,1.009 3.469,2.902 0,1.845 -1.352,3.05 -4.526,3.05 -0.91,0 -1.574,-0.073 -2.189,-0.147 L -8.289,2.509 0,2.509 0,0 z"
         id="path458"
         style="fill:#ffffff;fill-opacity:1;fill-rule:nonzero;stroke:none" />
    </g>
    <g
       transform="matrix(1.25,0,0,-1.25,303.17825,464.99809)"
       id="g460">
      <path
         d="m 0,0 5.421,1.836 0.294,-2.259 -2.98,-1.009 0.473,-3.674 2.845,0.962 0.299,-2.148 -2.807,-0.95 0.784,-5.733 -2.422,-0.82 L 0,0 z"
         id="path462"
         style="fill:#ffffff;fill-opacity:1;fill-rule:nonzero;stroke:none" />
    </g>
    <g
       transform="matrix(1.25,0,0,-1.25,316.00538,463.95071)"
       id="g464">
      <path
         d="m 0,0 c -0.802,-1.621 -0.231,-5.456 0.419,-7.378 0.247,-0.729 0.714,-1.857 1.733,-1.513 0.269,0.092 0.512,0.324 0.659,0.652 0.858,1.704 0.003,6.063 -0.472,7.467 C 2.065,0.035 1.611,0.997 0.728,0.697 0.42,0.593 0.178,0.359 0,0 m 4.891,-0.144 c 0.923,-2.729 1.191,-6.496 0.06,-8.785 -0.527,-1.1 -1.333,-1.823 -2.447,-2.2 -2.826,-0.957 -4.168,1.739 -4.643,3.143 -0.891,2.632 -1.159,6.398 0.036,8.753 0.515,1.01 1.307,1.771 2.442,2.155 2.807,0.95 4.024,-1.509 4.552,-3.066"
         id="path466"
         style="fill:#ffffff;fill-opacity:1;fill-rule:nonzero;stroke:none" />
    </g>
    <g
       transform="matrix(1.25,0,0,-1.25,327.56663,460.03597)"
       id="g468">
      <path
         d="M 0,0 C -0.802,-1.621 -0.231,-5.457 0.419,-7.379 0.666,-8.108 1.133,-9.235 2.152,-8.891 2.421,-8.8 2.664,-8.568 2.811,-8.24 3.669,-6.535 2.814,-2.176 2.339,-0.772 2.065,0.035 1.611,0.996 0.728,0.696 0.42,0.593 0.178,0.359 0,0 m 4.891,-0.144 c 0.923,-2.729 1.191,-6.497 0.06,-8.786 -0.527,-1.1 -1.333,-1.822 -2.447,-2.2 -2.826,-0.956 -4.168,1.74 -4.643,3.144 -0.891,2.632 -1.159,6.398 0.036,8.752 0.515,1.01 1.307,1.771 2.442,2.156 2.807,0.95 4.024,-1.509 4.552,-3.066"
         id="path470"
         style="fill:#ffffff;fill-opacity:1;fill-rule:nonzero;stroke:none" />
    </g>
    <g
       transform="matrix(1.25,0,0,-1.25,340.22413,467.66897)"
       id="g472">
      <path
         d="M 0,0 C 0.18,0.039 0.423,0.078 0.654,0.156 1.442,0.423 2.131,1.364 2.298,2.706 2.477,4.138 2.354,5.896 1.696,7.838 1.273,9.087 0.459,10.226 -0.771,9.809 -1.002,9.73 -1.194,9.666 -1.296,9.589 L 0,0 z m -3.907,10.655 c 0.608,0.356 1.46,0.75 2.401,1.07 1.558,0.526 2.759,0.334 3.659,-0.24 C 3.171,10.822 3.799,9.729 4.234,8.439 5.348,5.153 4.83,1.871 3.868,0.347 3.11,-0.896 2.074,-1.632 0.383,-2.205 c -0.769,-0.26 -1.764,-0.49 -2.411,-0.537 l -1.879,13.397 z"
         id="path474"
         style="fill:#ffffff;fill-opacity:1;fill-rule:nonzero;stroke:none" />
    </g>
    <g
       transform="matrix(1.25,0,0,-1.25,320.33275,483.30247)"
       id="g476">
      <path
         d="M 0,0 0.765,-5.612 3.398,-4.721 2.614,0.885 5.018,1.698 6.924,-12.098 4.521,-12.911 3.679,-7.068 1.084,-7.947 1.907,-13.796 -0.496,-14.609 -2.403,-0.813 0,0 z"
         id="path478"
         style="fill:#ffffff;fill-opacity:1;fill-rule:nonzero;stroke:none" />
    </g>
    <g
       transform="matrix(1.25,0,0,-1.25,337.40313,487.59334)"
       id="g480">
      <path
         d="m 0,0 -2.863,-0.97 0.505,-3.836 3.287,1.114 0.3,-2.278 L -4.423,-7.883 -6.33,5.913 -0.909,7.748 -0.615,5.491 -3.596,4.481 -3.182,1.172 -0.298,2.147 0,0 z"
         id="path482"
         style="fill:#ffffff;fill-opacity:1;fill-rule:nonzero;stroke:none" />
    </g>
    <g
       transform="matrix(1.25,0,0,-1.25,345.406,486.22371)"
       id="g484">
      <path
         d="M 0,0 -0.911,2.884 C -1.159,3.678 -1.544,5.069 -1.857,6.057 L -1.896,6.043 c 0.025,-1.084 0.083,-2.65 0.055,-3.452 L -1.903,-0.645 0,0 z M -1.88,-2.608 -2,-5.99 -4.345,-6.784 -3.483,7.948 -0.696,8.892 3.825,-4.019 1.499,-4.806 0.522,-1.795 -1.88,-2.608 z"
         id="path486"
         style="fill:#ffffff;fill-opacity:1;fill-rule:nonzero;stroke:none" />
    </g>
    <g
       transform="matrix(1.25,0,0,-1.25,349.46488,473.43921)"
       id="g488">
      <path
         d="m 0,0 2.423,0.819 1.581,-11.57 3.172,1.073 0.305,-2.231 -5.554,-1.88 L 0,0 z"
         id="path490"
         style="fill:#ffffff;fill-opacity:1;fill-rule:nonzero;stroke:none" />
    </g>
    <g
       transform="matrix(1.25,0,0,-1.25,358.67013,473.48559)"
       id="g492">
      <path
         d="M 0,0 -2.269,-0.768 -2.595,1.651 4.306,3.987 4.632,1.568 2.384,0.807 3.964,-10.569 1.562,-11.383 0,0 z"
         id="path494"
         style="fill:#ffffff;fill-opacity:1;fill-rule:nonzero;stroke:none" />
    </g>
    <g
       transform="matrix(1.25,0,0,-1.25,368.69338,466.93046)"
       id="g496">
      <path
         d="M 0,0 0.765,-5.612 3.397,-4.721 2.613,0.886 5.017,1.699 6.924,-12.097 4.521,-12.91 3.679,-7.068 1.083,-7.946 1.906,-13.795 -0.496,-14.608 -2.403,-0.813 0,0 z"
         id="path498"
         style="fill:#ffffff;fill-opacity:1;fill-rule:nonzero;stroke:none" />
    </g>
    <g
       transform="matrix(1.25,0,0,-1.25,339.39163,511.03196)"
       id="g500">
      <path
         d="M 0,0 -2.864,-0.97 -2.358,-4.806 0.929,-3.692 1.228,-5.97 -4.424,-7.883 -6.33,5.913 -0.909,7.748 -0.616,5.491 -3.596,4.482 -3.183,1.172 -0.299,2.147 0,0 z"
         id="path502"
         style="fill:#ffffff;fill-opacity:1;fill-rule:nonzero;stroke:none" />
    </g>
    <g
       transform="matrix(1.25,0,0,-1.25,343.16475,517.73609)"
       id="g504">
      <path
         d="M 0,0 -1.907,13.796 0.284,14.538 3.009,9.717 C 3.934,8.124 4.563,6.966 5.022,5.921 L 5.061,5.934 C 4.733,7.409 4.209,9.717 3.884,12.007 L 3.398,15.592 5.455,16.288 7.361,2.492 5.324,1.803 2.652,6.275 C 1.637,7.946 1.223,8.791 0.522,10.354 L 0.483,10.341 C 0.772,8.981 1.214,6.73 1.545,4.358 L 2.057,0.696 0,0 z"
         id="path506"
         style="fill:#ffffff;fill-opacity:1;fill-rule:nonzero;stroke:none" />
    </g>
    <g
       transform="matrix(1.25,0,0,-1.25,357.24925,512.96809)"
       id="g508">
      <path
         d="m 0,0 -4.79,12.819 2.652,0.899 2.046,-6.614 C 0.286,5.925 0.717,4.4 0.979,3.374 L 1.017,3.387 C 0.947,4.479 0.876,6.146 0.896,7.416 L 0.995,14.778 3.648,15.677 2.614,0.886 0,0 z"
         id="path510"
         style="fill:#ffffff;fill-opacity:1;fill-rule:nonzero;stroke:none" />
    </g>
    <g
       transform="matrix(1.25,0,0,-1.25,366.2825,491.85722)"
       id="g512">
      <path
         d="M 0,0 1.906,-13.796 -0.496,-14.609 -2.403,-0.814 0,0 z"
         id="path514"
         style="fill:#ffffff;fill-opacity:1;fill-rule:nonzero;stroke:none" />
    </g>
    <g
       transform="matrix(1.25,0,0,-1.25,373.20263,497.73734)"
       id="g516">
      <path
         d="M 0,0 0.538,0.183 C 1.75,0.593 2.114,2.173 1.658,3.519 1.424,4.211 0.889,4.843 -0.015,4.536 -0.245,4.458 -0.489,4.355 -0.63,4.266 L 0,0 z m -3.208,5.299 c 0.756,0.427 1.652,0.816 2.498,1.102 1.114,0.378 2.263,0.531 3.164,0.085 0.72,-0.355 1.281,-1 1.567,-1.846 C 4.666,2.737 4.026,0.827 2.729,-0.147 l 0.019,-0.059 c 0.803,-0.092 1.357,-0.719 1.891,-2.166 0.526,-1.43 1.104,-3.011 1.402,-3.446 L 3.638,-6.632 c -0.2,0.34 -0.681,1.633 -1.169,3.075 C 1.941,-2 1.433,-1.572 0.625,-1.846 L 0.222,-1.982 1.024,-7.517 -1.321,-8.311 -3.208,5.299 z"
         id="path518"
         style="fill:#ffffff;fill-opacity:1;fill-rule:nonzero;stroke:none" />
    </g>
    <g
       transform="matrix(1.25,0,0,-1.25,383.98875,489.15821)"
       id="g520">
      <path
         d="M 0,0 C -0.802,-1.621 -0.231,-5.457 0.419,-7.379 0.666,-8.108 1.133,-9.235 2.152,-8.891 2.421,-8.8 2.664,-8.568 2.811,-8.24 3.669,-6.535 2.814,-2.176 2.339,-0.772 2.065,0.035 1.611,0.996 0.728,0.696 0.42,0.593 0.178,0.36 0,0 M 4.891,-0.144 C 5.814,-2.873 6.082,-6.64 4.95,-8.93 c -0.526,-1.1 -1.332,-1.822 -2.447,-2.2 -2.825,-0.956 -4.167,1.74 -4.642,3.144 -0.891,2.633 -1.159,6.398 0.036,8.752 0.515,1.01 1.307,1.771 2.442,2.156 2.807,0.95 4.024,-1.509 4.552,-3.066"
         id="path522"
         style="fill:#ffffff;fill-opacity:1;fill-rule:nonzero;stroke:none" />
    </g>
    <g
       transform="matrix(1.25,0,0,-1.25,394.145,500.47659)"
       id="g524">
      <path
         d="m 0,0 -1.907,13.796 2.191,0.742 2.725,-4.82 C 3.934,8.124 4.563,6.966 5.022,5.921 l 0.04,0.014 C 4.733,7.409 4.209,9.717 3.884,12.007 L 3.398,15.592 5.455,16.288 7.362,2.493 5.325,1.803 2.652,6.275 C 1.638,7.947 1.223,8.791 0.522,10.354 L 0.483,10.341 C 0.772,8.982 1.214,6.731 1.545,4.358 L 2.057,0.696 0,0 z"
         id="path526"
         style="fill:#ffffff;fill-opacity:1;fill-rule:nonzero;stroke:none" />
    </g>
    <g
       transform="matrix(1.25,0,0,-1.25,416.23125,492.99859)"
       id="g528">
      <path
         d="M 0,0 -1.026,5.309 C -1.23,6.418 -1.456,7.905 -1.721,9.701 L -1.817,9.669 C -1.783,7.794 -1.871,6.094 -1.956,5.08 L -2.398,-0.576 -4.129,-1.161 -6.031,3.764 C -6.369,4.636 -6.915,6.057 -7.449,7.762 L -7.488,7.749 c 0.247,-1.803 0.414,-3.31 0.521,-4.452 l 0.527,-5.478 -2.076,-0.702 -1.099,14.069 2.537,0.859 2.332,-6.067 C -4.4,5.022 -3.907,3.69 -3.633,2.755 l 0.058,0.019 c -0.064,1.008 -0.012,2.503 0.04,3.614 L -3.138,13.379 -0.6,14.238 2.095,0.709 0,0 z"
         id="path530"
         style="fill:#ffffff;fill-opacity:1;fill-rule:nonzero;stroke:none" />
    </g>
    <g
       transform="matrix(1.25,0,0,-1.25,426.739,481.46047)"
       id="g532">
      <path
         d="M 0,0 -2.865,-0.97 -2.359,-4.805 0.928,-3.691 1.227,-5.969 -4.424,-7.882 -6.331,5.913 -0.91,7.749 -0.617,5.491 -3.597,4.482 -3.183,1.172 -0.3,2.148 0,0 z"
         id="path534"
         style="fill:#ffffff;fill-opacity:1;fill-rule:nonzero;stroke:none" />
    </g>
    <g
       transform="matrix(1.25,0,0,-1.25,430.51101,488.16459)"
       id="g536">
      <path
         d="M 0,0 -1.908,13.796 0.285,14.538 3.01,9.718 C 3.934,8.125 4.563,6.966 5.021,5.921 l 0.04,0.014 C 4.734,7.409 4.209,9.717 3.885,12.007 L 3.398,15.592 5.455,16.289 7.361,2.493 5.324,1.803 2.652,6.276 C 1.637,7.947 1.223,8.792 0.523,10.354 L 0.484,10.341 C 0.773,8.982 1.213,6.731 1.545,4.358 L 2.057,0.697 0,0 z"
         id="path538"
         style="fill:#ffffff;fill-opacity:1;fill-rule:nonzero;stroke:none" />
    </g>
    <g
       transform="matrix(1.25,0,0,-1.25,442.09063,469.35359)"
       id="g540">
      <path
         d="M 0,0 -2.27,-0.769 -2.594,1.65 4.307,3.987 4.633,1.568 2.383,0.807 3.965,-10.569 1.563,-11.383 0,0 z"
         id="path542"
         style="fill:#ffffff;fill-opacity:1;fill-rule:nonzero;stroke:none" />
    </g>
  </g>
</svg>
